<svg width="25" height="16" viewBox="0 0 25 16" fill="none" xmlns="http://www.w3.org/2000/svg">
<path d="M24.9095 9.011C24.7219 6.9905 24.413 6.597 24.2964 6.449C24.0281 6.107 23.5989 5.8835 23.1446 5.649C23.1189 5.63596 23.0968 5.61737 23.0798 5.5947C23.0629 5.57203 23.0517 5.54589 23.0471 5.51835C23.0425 5.49081 23.0447 5.46262 23.0534 5.43601C23.0621 5.4094 23.0771 5.38509 23.0972 5.365C23.1813 5.28311 23.246 5.18472 23.2867 5.07657C23.3275 4.96842 23.3433 4.85309 23.3332 4.7385C23.3136 4.53531 23.2152 4.3466 23.0574 4.20981C22.8997 4.07301 22.6941 3.99813 22.4815 4H21.6689C21.6341 4.0002 21.5993 4.00237 21.5647 4.0065C21.541 3.99662 21.5164 3.98876 21.4913 3.983C21.0099 3.0065 20.351 1.6695 18.9852 1.017C16.9593 0.0499998 13.2275 0 12.4983 0C11.769 0 8.0372 0.0499999 6.01399 1.0155C4.64816 1.668 3.98921 3.005 3.50789 3.9815L3.50372 3.9895C3.47972 3.99274 3.45614 3.99844 3.4334 4.0065C3.39883 4.00237 3.36405 4.0002 3.32922 4H2.51503C2.30245 3.99813 2.09689 4.07301 1.93913 4.20981C1.78137 4.3466 1.68294 4.53531 1.66335 4.7385C1.65409 4.85282 1.67067 4.96771 1.71193 5.07532C1.7532 5.18293 1.81818 5.28072 1.90244 5.362C1.9226 5.38209 1.93762 5.4064 1.94632 5.43301C1.95501 5.45962 1.95715 5.48781 1.95255 5.51535C1.94795 5.54289 1.93675 5.56903 1.91983 5.5917C1.90291 5.61437 1.88073 5.63296 1.85504 5.646C1.40081 5.882 0.969494 6.1055 0.703309 6.446C0.586625 6.596 0.278246 6.9875 0.090198 9.008C-0.013984 10.145 -0.0296113 11.322 0.0521716 12.08C0.223551 13.655 0.544953 14.607 0.558496 14.6465C0.607815 14.7902 0.6986 14.9176 0.82031 15.0138C0.942021 15.11 1.08966 15.1711 1.2461 15.19V15.2C1.2461 15.4122 1.33391 15.6157 1.49021 15.7657C1.64651 15.9157 1.85851 16 2.07955 16H4.99665C5.2177 16 5.42969 15.9157 5.58599 15.7657C5.7423 15.6157 5.83011 15.4122 5.83011 15.2C6.27861 15.2 6.59063 15.123 6.92141 15.041C7.39897 14.9175 7.88711 14.8353 8.37996 14.7955C9.96926 14.65 11.5497 14.6 12.4983 14.6C13.4276 14.6 15.0778 14.65 16.6697 14.7955C17.1645 14.8354 17.6546 14.9179 18.134 15.042C18.4507 15.12 18.7513 15.192 19.1675 15.1995C19.1675 15.4117 19.2553 15.6152 19.4116 15.7652C19.5679 15.9152 19.7799 15.9995 20.0009 15.9995H22.918C23.1391 15.9995 23.3511 15.9152 23.5074 15.7652C23.6637 15.6152 23.7515 15.4117 23.7515 15.1995V15.1935C23.9083 15.175 24.0564 15.114 24.1785 15.0178C24.3006 14.9216 24.3917 14.794 24.4412 14.65C24.4547 14.6105 24.7761 13.6585 24.9475 12.0835C25.0293 11.325 25.0147 10.15 24.9095 9.011ZM5.01436 4.6655C5.43109 3.8155 5.90772 2.8535 6.75628 2.448C7.98251 1.862 10.524 1.598 12.4983 1.598C14.4725 1.598 17.014 1.86 18.2403 2.448C19.0888 2.8535 19.5634 3.816 19.9822 4.6655L20.0343 4.774C20.0647 4.83577 20.0782 4.904 20.0734 4.97218C20.0686 5.04036 20.0456 5.10622 20.0068 5.16348C19.9679 5.22074 19.9144 5.26749 19.8514 5.29927C19.7884 5.33104 19.7179 5.34679 19.6467 5.345C17.9157 5.3 14.2694 5.156 12.4983 5.156C10.7272 5.156 7.08081 5.3035 5.34722 5.3485C5.27605 5.35029 5.20559 5.33454 5.14256 5.30276C5.07952 5.27099 5.02602 5.22424 4.98716 5.16698C4.9483 5.10972 4.92536 5.04386 4.92055 4.97568C4.91574 4.9075 4.9292 4.83927 4.95966 4.7775C4.9779 4.7405 4.99717 4.703 5.01436 4.6655ZM5.63581 8.647C4.73974 8.75052 3.83794 8.80161 2.93541 8.8C2.38324 8.8 1.81389 8.65 1.70814 8.178C1.63574 7.8605 1.64355 7.682 1.68262 7.5025C1.71544 7.35 1.76753 7.239 2.02798 7.2C2.70517 7.1 3.08387 7.2255 4.19236 7.539C4.92737 7.7465 5.45765 8.023 5.75978 8.242C5.91137 8.35 5.83063 8.632 5.63581 8.647ZM17.1677 12.747C16.4822 12.822 15.1112 12.7945 12.5139 12.7945C9.91664 12.7945 8.54613 12.822 7.86061 12.747C7.15322 12.6715 6.25152 12.0295 6.86724 11.4575C7.27719 11.0805 8.23358 10.7985 9.50721 10.64C10.7808 10.4815 11.32 10.4 12.5087 10.4C13.6974 10.4 14.1819 10.45 15.5102 10.6405C16.8385 10.831 17.8423 11.1165 18.1501 11.458C18.7117 12.07 17.8746 12.6675 17.1677 12.75V12.747ZM23.2884 8.1775C23.1842 8.6515 22.6112 8.7995 22.0611 8.7995C21.1413 8.79971 20.2223 8.74862 19.3087 8.6465C19.1493 8.632 19.0753 8.3635 19.2368 8.2415C19.5342 8.017 20.0702 7.746 20.8042 7.5385C21.9127 7.225 22.5518 7.0995 23.1009 7.204C23.2348 7.2295 23.3056 7.3675 23.3139 7.454C23.3507 7.69485 23.342 7.94008 23.2884 8.178V8.1775Z" fill="#C93333"/>
</svg>
