<svg width="170" height="28" viewBox="0 0 170 28" fill="none" xmlns="http://www.w3.org/2000/svg">
<path d="M0.126394 27L11.3584 1.8H17.1184L28.3864 27H22.2664L13.0504 4.752H15.3544L6.10239 27H0.126394ZM5.74239 21.6L7.29039 17.172H20.2504L21.8344 21.6H5.74239ZM38.1253 27.288C36.5173 27.288 35.0773 26.976 33.8053 26.352C32.5573 25.728 31.5853 24.78 30.8893 23.508C30.1933 22.212 29.8453 20.568 29.8453 18.576V7.632H35.4613V17.748C35.4613 19.356 35.7973 20.544 36.4693 21.312C37.1653 22.056 38.1373 22.428 39.3853 22.428C40.2493 22.428 41.0173 22.248 41.6893 21.888C42.3613 21.504 42.8893 20.928 43.2733 20.16C43.6573 19.368 43.8493 18.384 43.8493 17.208V7.632H49.4653V27H44.1373V21.672L45.1093 23.22C44.4613 24.564 43.5013 25.584 42.2293 26.28C40.9813 26.952 39.6133 27.288 38.1253 27.288ZM62.2882 27.288C60.0082 27.288 58.2322 26.712 56.9602 25.56C55.6882 24.384 55.0522 22.644 55.0522 20.34V3.348H60.6682V20.268C60.6682 21.084 60.8842 21.72 61.3162 22.176C61.7482 22.608 62.3362 22.824 63.0802 22.824C63.9682 22.824 64.7242 22.584 65.3482 22.104L66.8602 26.064C66.2842 26.472 65.5882 26.784 64.7722 27C63.9802 27.192 63.1522 27.288 62.2882 27.288ZM52.0642 12.384V8.064H65.4922V12.384H52.0642ZM78.331 27.288C76.267 27.288 74.431 26.856 72.823 25.992C71.239 25.128 69.979 23.952 69.043 22.464C68.131 20.952 67.675 19.236 67.675 17.316C67.675 15.372 68.131 13.656 69.043 12.168C69.979 10.656 71.239 9.48 72.823 8.64C74.431 7.776 76.267 7.344 78.331 7.344C80.371 7.344 82.195 7.776 83.803 8.64C85.411 9.48 86.6711 10.644 87.583 12.132C88.495 13.62 88.951 15.348 88.951 17.316C88.951 19.236 88.495 20.952 87.583 22.464C86.6711 23.952 85.411 25.128 83.803 25.992C82.195 26.856 80.371 27.288 78.331 27.288ZM78.331 22.68C79.267 22.68 80.107 22.464 80.851 22.032C81.595 21.6 82.183 20.988 82.615 20.196C83.047 19.38 83.263 18.42 83.263 17.316C83.263 16.188 83.047 15.228 82.615 14.436C82.183 13.644 81.595 13.032 80.851 12.6C80.107 12.168 79.267 11.952 78.331 11.952C77.395 11.952 76.555 12.168 75.811 12.6C75.067 13.032 74.467 13.644 74.011 14.436C73.579 15.228 73.363 16.188 73.363 17.316C73.363 18.42 73.579 19.38 74.011 20.196C74.467 20.988 75.067 21.6 75.811 22.032C76.555 22.464 77.395 22.68 78.331 22.68Z" fill="white"/>
<path d="M101.765 27.288C99.6769 27.288 97.8169 26.868 96.1849 26.028C94.5529 25.164 93.2689 23.976 92.3329 22.464C91.4209 20.952 90.9649 19.236 90.9649 17.316C90.9649 15.372 91.4209 13.656 92.3329 12.168C93.2689 10.656 94.5529 9.48 96.1849 8.64C97.8169 7.776 99.6769 7.344 101.765 7.344C103.805 7.344 105.581 7.776 107.093 8.64C108.605 9.48 109.721 10.692 110.441 12.276L106.085 14.616C105.581 13.704 104.945 13.032 104.177 12.6C103.433 12.168 102.617 11.952 101.729 11.952C100.769 11.952 99.9049 12.168 99.1369 12.6C98.3689 13.032 97.7569 13.644 97.3009 14.436C96.8689 15.228 96.6529 16.188 96.6529 17.316C96.6529 18.444 96.8689 19.404 97.3009 20.196C97.7569 20.988 98.3689 21.6 99.1369 22.032C99.9049 22.464 100.769 22.68 101.729 22.68C102.617 22.68 103.433 22.476 104.177 22.068C104.945 21.636 105.581 20.952 106.085 20.016L110.441 22.392C109.721 23.952 108.605 25.164 107.093 26.028C105.581 26.868 103.805 27.288 101.765 27.288ZM125.254 27V23.22L124.894 22.392V15.624C124.894 14.424 124.522 13.488 123.778 12.816C123.058 12.144 121.942 11.808 120.43 11.808C119.398 11.808 118.378 11.976 117.37 12.312C116.386 12.624 115.546 13.056 114.85 13.608L112.834 9.684C113.89 8.94 115.162 8.364 116.65 7.956C118.138 7.548 119.65 7.344 121.186 7.344C124.138 7.344 126.43 8.04 128.062 9.432C129.694 10.824 130.51 12.996 130.51 15.948V27H125.254ZM119.35 27.288C117.838 27.288 116.542 27.036 115.462 26.532C114.382 26.004 113.554 25.296 112.978 24.408C112.402 23.52 112.114 22.524 112.114 21.42C112.114 20.268 112.39 19.26 112.942 18.396C113.518 17.532 114.418 16.86 115.642 16.38C116.866 15.876 118.462 15.624 120.43 15.624H125.578V18.9H121.042C119.722 18.9 118.81 19.116 118.306 19.548C117.826 19.98 117.586 20.52 117.586 21.168C117.586 21.888 117.862 22.464 118.414 22.896C118.99 23.304 119.77 23.508 120.754 23.508C121.69 23.508 122.53 23.292 123.274 22.86C124.018 22.404 124.558 21.744 124.894 20.88L125.758 23.472C125.35 24.72 124.606 25.668 123.526 26.316C122.446 26.964 121.054 27.288 119.35 27.288ZM135.293 27V7.632H140.657V13.104L139.901 11.52C140.477 10.152 141.401 9.12 142.673 8.424C143.945 7.704 145.493 7.344 147.317 7.344V12.528C147.077 12.504 146.861 12.492 146.669 12.492C146.477 12.468 146.273 12.456 146.057 12.456C144.521 12.456 143.273 12.9 142.313 13.788C141.377 14.652 140.909 16.008 140.909 17.856V27H135.293ZM158.532 27.288C156.708 27.288 155.064 26.88 153.6 26.064C152.136 25.224 150.972 24.06 150.108 22.572C149.268 21.084 148.848 19.332 148.848 17.316C148.848 15.276 149.268 13.512 150.108 12.024C150.972 10.536 152.136 9.384 153.6 8.568C155.064 7.752 156.708 7.344 158.532 7.344C160.164 7.344 161.592 7.704 162.816 8.424C164.04 9.144 164.988 10.236 165.66 11.7C166.332 13.164 166.668 15.036 166.668 17.316C166.668 19.572 166.344 21.444 165.696 22.932C165.048 24.396 164.112 25.488 162.888 26.208C161.688 26.928 160.236 27.288 158.532 27.288ZM159.504 22.68C160.416 22.68 161.244 22.464 161.988 22.032C162.732 21.6 163.32 20.988 163.752 20.196C164.208 19.38 164.436 18.42 164.436 17.316C164.436 16.188 164.208 15.228 163.752 14.436C163.32 13.644 162.732 13.032 161.988 12.6C161.244 12.168 160.416 11.952 159.504 11.952C158.568 11.952 157.728 12.168 156.984 12.6C156.24 13.032 155.64 13.644 155.184 14.436C154.752 15.228 154.536 16.188 154.536 17.316C154.536 18.42 154.752 19.38 155.184 20.196C155.64 20.988 156.24 21.6 156.984 22.032C157.728 22.464 158.568 22.68 159.504 22.68ZM164.58 27V23.04L164.688 17.28L164.328 11.556V0.287998H169.944V27H164.58Z" fill="#C93333"/>
</svg>
