<svg width="44" height="44" viewBox="0 0 44 44" fill="none" xmlns="http://www.w3.org/2000/svg">
<g filter="url(#filter0_d_214_1178)">
<circle cx="22" cy="20" r="18" fill="#C93333"/>
<path d="M22 22C23.1046 22 24 21.1046 24 20C24 18.8954 23.1046 18 22 18C20.8954 18 20 18.8954 20 20C20 21.1046 20.8954 22 22 22Z" fill="white"/>
<path d="M22 15C23.1046 15 24 14.1046 24 13C24 11.8954 23.1046 11 22 11C20.8954 11 20 11.8954 20 13C20 14.1046 20.8954 15 22 15Z" fill="white"/>
<path d="M22 29C23.1046 29 24 28.1046 24 27C24 25.8954 23.1046 25 22 25C20.8954 25 20 25.8954 20 27C20 28.1046 20.8954 29 22 29Z" fill="white"/>
</g>
<defs>
<filter id="filter0_d_214_1178" x="0" y="0" width="44" height="44" filterUnits="userSpaceOnUse" color-interpolation-filters="sRGB">
<feFlood flood-opacity="0" result="BackgroundImageFix"/>
<feColorMatrix in="SourceAlpha" type="matrix" values="0 0 0 0 0 0 0 0 0 0 0 0 0 0 0 0 0 0 127 0" result="hardAlpha"/>
<feOffset dy="2"/>
<feGaussianBlur stdDeviation="2"/>
<feColorMatrix type="matrix" values="0 0 0 0 0 0 0 0 0 0 0 0 0 0 0 0 0 0 0.15 0"/>
<feBlend mode="normal" in2="BackgroundImageFix" result="effect1_dropShadow_214_1178"/>
<feBlend mode="normal" in="SourceGraphic" in2="effect1_dropShadow_214_1178" result="shape"/>
</filter>
</defs>
</svg>
