<svg width="36" height="35" viewBox="0 0 36 35" fill="none" xmlns="http://www.w3.org/2000/svg">
<path fill-rule="evenodd" clip-rule="evenodd" d="M0.130859 17.5C0.130859 12.8587 1.98555 8.40752 5.28691 5.12563C8.58827 1.84374 13.0659 0 17.7347 0C22.4035 0 26.8812 1.84374 30.1825 5.12563C33.4839 8.40752 35.3386 12.8587 35.3386 17.5C35.3386 22.1413 33.4839 26.5925 30.1825 29.8744C26.8812 33.1563 22.4035 35 17.7347 35C13.0659 35 8.58827 33.1563 5.28691 29.8744C1.98555 26.5925 0.130859 22.1413 0.130859 17.5ZM17.7347 2.51019C14.812 2.51029 11.9524 3.35476 9.50362 4.94086C7.05486 6.52696 5.12257 8.78633 3.9418 11.4441C2.76104 14.1019 2.3827 17.0435 2.85281 19.9111C3.32292 22.7787 4.62122 25.4487 6.58977 27.5963C7.78487 25.7354 9.43253 24.204 11.3805 23.1437C13.3284 22.0833 15.5138 21.5281 17.7347 21.5295C22.4181 21.5295 26.5327 23.9499 28.8797 27.5963C30.8482 25.4487 32.1465 22.7787 32.6166 19.9111C33.0867 17.0435 32.7084 14.1019 31.5276 11.4441C30.3469 8.78633 28.4146 6.52696 25.9658 4.94086C23.5171 3.35476 20.6574 2.51029 17.7347 2.51019ZM26.9898 29.3349C26.0493 27.7234 24.6991 26.386 23.0748 25.4566C21.4504 24.5273 19.6089 24.0386 17.7347 24.0397C15.8605 24.0386 14.019 24.5273 12.3947 25.4566C10.7703 26.386 9.42018 27.7234 8.4796 29.3349C11.1237 31.3845 14.3818 32.4951 17.7347 32.4898C21.222 32.4898 24.4328 31.3113 26.9898 29.3349ZM11.4884 14.8709C11.4884 13.2241 12.1465 11.6447 13.3179 10.4802C14.4893 9.31569 16.0781 8.66148 17.7347 8.66148C19.3913 8.66148 20.9801 9.31569 22.1515 10.4802C23.3229 11.6447 23.981 13.2241 23.981 14.8709C23.981 16.5177 23.3229 18.0971 22.1515 19.2616C20.9801 20.4261 19.3913 21.0803 17.7347 21.0803C16.0781 21.0803 14.4893 20.4261 13.3179 19.2616C12.1465 18.0971 11.4884 16.5177 11.4884 14.8709ZM17.7347 11.1717C17.246 11.1717 16.7622 11.2674 16.3107 11.4533C15.8592 11.6392 15.449 11.9116 15.1034 12.2552C14.7579 12.5987 14.4838 13.0065 14.2968 13.4553C14.1098 13.9041 14.0135 14.3851 14.0135 14.8709C14.0135 15.3567 14.1098 15.8377 14.2968 16.2865C14.4838 16.7353 14.7579 17.1431 15.1034 17.4867C15.449 17.8302 15.8592 18.1026 16.3107 18.2885C16.7622 18.4745 17.246 18.5701 17.7347 18.5701C18.7216 18.5701 19.6681 18.1804 20.366 17.4867C21.0638 16.7929 21.4559 15.852 21.4559 14.8709C21.4559 13.8898 21.0638 12.9489 20.366 12.2552C19.6681 11.5614 18.7216 11.1717 17.7347 11.1717Z" fill="white"/>
</svg>
