<svg width="17" height="28" viewBox="0 0 17 28" fill="none" xmlns="http://www.w3.org/2000/svg">
<path d="M13.6 1.7C14.0509 1.7 14.4833 1.87911 14.8021 2.19792C15.1209 2.51673 15.3 2.94913 15.3 3.4V23.8C15.3 24.2509 15.1209 24.6833 14.8021 25.0021C14.4833 25.3209 14.0509 25.5 13.6 25.5H3.4C2.94913 25.5 2.51673 25.3209 2.19792 25.0021C1.87911 24.6833 1.7 24.2509 1.7 23.8V3.4C1.7 2.94913 1.87911 2.51673 2.19792 2.19792C2.51673 1.87911 2.94913 1.7 3.4 1.7H13.6ZM3.4 0C2.49826 0 1.63346 0.358213 0.995837 0.995837C0.358213 1.63346 0 2.49826 0 3.4V23.8C0 24.7017 0.358213 25.5665 0.995837 26.2042C1.63346 26.8418 2.49826 27.2 3.4 27.2H13.6C14.5017 27.2 15.3665 26.8418 16.0042 26.2042C16.6418 25.5665 17 24.7017 17 23.8V3.4C17 2.49826 16.6418 1.63346 16.0042 0.995837C15.3665 0.358213 14.5017 0 13.6 0L3.4 0Z" fill="white"/>
<path d="M8.4998 23.8004C8.95067 23.8004 9.38307 23.6213 9.70189 23.3025C10.0207 22.9837 10.1998 22.5513 10.1998 22.1004C10.1998 21.6495 10.0207 21.2171 9.70189 20.8983C9.38307 20.5795 8.95067 20.4004 8.4998 20.4004C8.04894 20.4004 7.61654 20.5795 7.29772 20.8983C6.97891 21.2171 6.7998 21.6495 6.7998 22.1004C6.7998 22.5513 6.97891 22.9837 7.29772 23.3025C7.61654 23.6213 8.04894 23.8004 8.4998 23.8004Z" fill="white"/>
</svg>
